<svg width="25" height="25" viewBox="0 0 25 25" fill="none" xmlns="http://www.w3.org/2000/svg">
<path d="M3.98352 12.0828C3.98008 13.4026 4.28845 14.7046 4.88352 15.8828C5.58909 17.2945 6.67377 18.4819 8.01607 19.312C9.35837 20.1421 10.9053 20.5822 12.4835 20.5828C13.8034 20.5862 15.1054 20.2778 16.2835 19.6828L21.9835 21.5828L20.0835 15.8828C20.6786 14.7046 20.987 13.4026 20.9835 12.0828C20.9829 10.5045 20.5429 8.95761 19.7128 7.61531C18.8827 6.27301 17.6953 5.18833 16.2835 4.48276C15.1054 3.88769 13.8034 3.57932 12.4835 3.58276H11.9835C9.89917 3.69775 7.93048 4.57752 6.45438 6.05362C4.97828 7.52972 4.09851 9.49841 3.98352 11.5828V12.0828Z" stroke="black" stroke-width="2" stroke-linecap="round" stroke-linejoin="round"/>
</svg>
